<svg xmlns="http://www.w3.org/2000/svg" viewBox="0 0 1807.44 631.53"><defs><style>.cls-1{fill:#bb9e5d;}</style></defs><g id="Layer_2" data-name="Layer 2"><g id="Layer_1-2" data-name="Layer 1"><path class="cls-1" d="M864.94,453.79V631.53H763V126.6H864.87v51.8c11-14.93,23.22-27.21,37.6-36.93,8.59-5.81,18.27-10.22,27.91-14.19,34.22-14.1,69.28-13.1,104.06-3,12.24,3.56,24,9.88,34.93,16.6,14.15,8.67,26.25,20.23,36.69,33.15a195.84,195.84,0,0,1,41,89.9c6.74,37.66,6.38,75.2-2.09,112.59a191.61,191.61,0,0,1-28.5,66.41c-8.35,12.24-17.39,23.88-29,33.18-7.58,6.07-15.54,11.68-23.48,17.26-14.24,10-30.78,13.81-47.37,17.76a136.53,136.53,0,0,1-54.74,1.46c-16.85-2.83-33.54-7.19-48.47-16A162.82,162.82,0,0,1,874,463.9c-2.91-3.3-5.36-7-8-10.51ZM865.15,315a114.27,114.27,0,0,0,11.65,57.89c8.41,17.28,20.45,31.9,37.41,40.33,30.69,15.23,61.77,14.76,91.67-3.45a83.48,83.48,0,0,0,21.59-18.84A103.28,103.28,0,0,0,1045.36,359c8.56-25,9-50.32,3.41-75.88-5.13-23.43-17.48-42.57-36-57.68-11.72-9.59-25.95-14.08-40.43-16.82A78.77,78.77,0,0,0,935.63,210c-14.16,4.05-27.11,9.56-38,19.91a97.6,97.6,0,0,0-21.92,29.79C867.54,277.41,863.58,296.14,865.15,315Z"/><path class="cls-1" d="M717,315.5c-.32,26.67-4.55,52.58-15.77,76.89a317.86,317.86,0,0,1-18.11,32.83c-8,13.1-18.48,24.26-29.6,34.91a214.61,214.61,0,0,1-46.12,33.45c-16.28,8.91-33.78,13.32-51.61,17.36-21.13,4.79-42.45,4.88-63.51,1.44-18.48-3-36.94-7.36-53.84-16a221.85,221.85,0,0,1-26.61-15.61,208.66,208.66,0,0,1-38.52-34.39,253.33,253.33,0,0,1-22.81-30.83c-14.15-22.62-22.5-47.44-25.83-74a202.6,202.6,0,0,1,6.09-82.42,176.22,176.22,0,0,1,21-46.33,222,222,0,0,1,27.66-35,224.67,224.67,0,0,1,42.52-34.12c11.73-7.32,24.28-12.25,37.16-16.78,38.14-13.42,76.78-12.9,115.26-2.7,13.71,3.63,26.77,10.2,39.55,16.56,8.52,4.24,16.46,10,23.91,16,18.07,14.55,34.14,31.14,47.05,50.5a187.5,187.5,0,0,1,30.71,84.4C716.43,299.59,716.54,307.56,717,315.5Zm-97.3-.06c-.41-5.27-.62-10.57-1.25-15.82-3.76-31.4-19.89-55.63-44.19-74.87-11-8.72-24.31-13.19-37.76-16a74.83,74.83,0,0,0-35.89,1.15c-14.56,4.09-28,9.61-39.61,19.63-10.07,8.67-18.79,18.4-25.39,29.72-14.12,24.25-17.74,50.6-12.59,77.94,6.39,33.94,25.32,60.18,55.4,76,29.81,15.68,60.88,14.82,90.34-3.7,13.72-8.62,24.4-20.05,33.23-33.49C614.1,357.58,619.44,337.33,619.71,315.44Z"/><path class="cls-1" d="M252.6,504.93H149.09V104.76c0-5.81,0-5.81-5.93-5.81H0V1.62H401.59V98.86h-149Z"/><path class="cls-1" d="M1807.44,260.83c0,40.29-4.72,79.93-18.4,118-5.34,14.88-12.51,29.17-19.76,43.26-7.15,13.88-16.55,26.35-27,38.11a206.71,206.71,0,0,1-35.76,32.43c-10.72,7.55-22.37,12.79-34.31,17.87-26,11.07-53.16,12.55-80.81,10.76-13.72-.89-27.37-2.84-40.14-7.81a247.43,247.43,0,0,1-36.14-17.06c-13.79-8.14-25.91-18.82-36.74-30.65a240.82,240.82,0,0,1-36.74-52.58c-13.7-26.59-22.49-54.86-27.53-84.26-5-29.12-6.3-58.52-5-88,1.5-34.16,7.08-67.63,18.73-99.9a247.12,247.12,0,0,1,20.88-44.12,249.84,249.84,0,0,1,26.86-36.69,197.53,197.53,0,0,1,38.76-33.4c11.54-7.68,24-12.77,36.92-17.29C1586.87-3,1622.91-2.45,1658.74,7c13.15,3.48,25.86,9.65,37.84,16.28,15.5,8.58,29,20.2,41,33.25a238.34,238.34,0,0,1,35.24,49.59c14.89,28,24.34,58,29.45,89.27A398,398,0,0,1,1807.44,260.83Zm-343.3.22a350.36,350.36,0,0,0,5.87,64.46c6.07,32.05,17.82,61.71,36.71,88.39,8.72,12.32,18.91,23.59,31.22,32.22,9.7,6.79,20.37,13.12,31.55,16.72,27.91,9,56.11,9.42,83.68-2.55,10.51-4.56,20.46-9.75,29.37-17.25a164.74,164.74,0,0,0,30.23-33.75,208.89,208.89,0,0,0,25-51.23c9.26-27.33,13.26-55.56,14-84.22.4-15.59-.45-31.23-1.38-46.82a246.89,246.89,0,0,0-10.83-57.79,221.25,221.25,0,0,0-18.15-42.56c-11.65-21-26.67-38.94-46-53.18-10.43-7.68-22.45-12.71-34.71-16-23.26-6.19-46.63-6.23-69.87,1.89a121.51,121.51,0,0,0-41.91,24.39,90,90,0,0,0-7.37,6.82c-10.46,11.77-20.31,24-27.36,38.21-4.7,9.48-9.62,18.93-13.31,28.81C1468.43,190.94,1464.13,225.67,1464.14,261.05Z"/><path class="cls-1" d="M1197.85,93.88c2.26-1.84,4.29-3.7,6.51-5.28,13.43-9.47,26.93-18.85,40.36-28.32,8-5.61,15.84-11.32,23.76-17q11.37-8.13,22.72-16.26c7-5,13.9-10.2,21-15a13.36,13.36,0,0,1,6.89-2.19c13.41-.2,26.83-.1,40.59-.1V513.18h-54.55V79.29l-83.55,57.12C1213.66,122.16,1206,108.36,1197.85,93.88Z"/></g></g></svg>