<svg xmlns="http://www.w3.org/2000/svg" viewBox="0 0 383 351"><defs><style>.cls-1{fill:#1a1a19;}.cls-2{fill:#b89b5b;}</style></defs><g id="Layer_2" data-name="Layer 2"><g id="Layer_1-2" data-name="Layer 1"><path class="cls-1" d="M383,0Q286.31,88.57,189.63,177.16,94.8,264.07,0,351V0ZM153.59,119.13a29.65,29.65,0,0,0,28.59-21.32c6.33-22.3-15.45-48.19-39.38-46.82-12.6.73-24.93,12-26.72,24.42C113.08,96.29,132.45,118.86,153.59,119.13ZM42,137.55c-4.88,2.26-5.84,5-2.75,8.79a18.07,18.07,0,0,1,1.72,3c4.33,8.14,4.33,8.13-2.27,14.79a17.93,17.93,0,0,0-1.49,2c1,1.73,2,3.26,3.13,5.12l8.43-7.15c2.51,4.62,4.42,8.9,7,12.7,2.85,4.15,2.28,7.09-1.78,9.77-3.74,2.48-4,5.24-.24,8.25L61.65,188l8.52,15.47c4.6-1.94,5.75-4.4,3-8.56-2.44-3.68-4.28-7.77-6.44-11.79l10.79-9.71,8.7,15.6c4.58-2.07,5.55-4.59,2.78-8.7-2.39-3.54-4.09-7.55-6.32-11.77l8.71-7.68-3.16-5.4-8.71,7.52-9.82-18.28a54.77,54.77,0,0,1,4.64-4.16c4-2.82,4.6-5.72.41-9.23l-8.22,7.23-8.71-15.62c-5.39,3.81-5.36,3.8-2.63,8.83,2.11,3.88,4.15,7.79,6.24,11.72L50.57,153Zm97.26,3.52L92.33,89.86c-3.19,3.81-7.1,6.74-8.58,10.6-2.63,6.91-3.8,14.38-5.66,22l11.3,3.9c1.38-4.4,2.63-8.37,4.11-13l34.78,37.79Z"/><path class="cls-2" d="M153.59,119.13c-21.14-.27-40.51-22.84-37.51-43.72C117.87,63,130.2,51.72,142.8,51c23.93-1.37,45.71,24.52,39.38,46.82A29.65,29.65,0,0,1,153.59,119.13Zm1.8-14.39a12.91,12.91,0,0,0,12.85-10.31C171.17,81.8,155,63.75,142.16,65.3a13.21,13.21,0,0,0-11.37,10.31C128,87.64,142.47,104.78,155.39,104.74Z"/><path class="cls-2" d="M42,137.55,50.57,153l10.85-9.55c-2.09-3.93-4.13-7.84-6.24-11.72-2.73-5-2.76-5,2.63-8.83l8.71,15.62,8.22-7.23c4.19,3.51,3.56,6.41-.41,9.23a54.77,54.77,0,0,0-4.64,4.16l9.82,18.28,8.71-7.52,3.16,5.4-8.71,7.68c2.23,4.22,3.93,8.23,6.32,11.77,2.77,4.11,1.8,6.63-2.78,8.7l-8.7-15.6-10.79,9.71c2.16,4,4,8.11,6.44,11.79,2.76,4.16,1.61,6.62-3,8.56L61.65,188l-7.89,6.89c-3.79-3-3.5-5.77.24-8.25,4.06-2.68,4.63-5.62,1.78-9.77-2.6-3.8-4.51-8.08-7-12.7l-8.43,7.15c-1.14-1.86-2.08-3.39-3.13-5.12a17.93,17.93,0,0,1,1.49-2c6.6-6.66,6.6-6.65,2.27-14.79a18.07,18.07,0,0,0-1.72-3C36.15,142.53,37.11,139.81,42,137.55Zm22.59,11.67c-3.44,3.2-6.41,5.82-9.18,8.64a3.31,3.31,0,0,0-.76,2.94c2.82,5.52,5.87,10.93,9.06,16.75,3.33-3,6.3-5.36,8.86-8.13a4.63,4.63,0,0,0,.59-4.15C70.62,160.07,67.74,155.06,64.58,149.22Z"/><path class="cls-2" d="M139.25,141.07l-11,10L93.5,113.27c-1.48,4.68-2.73,8.65-4.11,13l-11.3-3.9c1.86-7.58,3-15,5.66-22,1.48-3.86,5.39-6.79,8.58-10.6Z"/><path class="cls-1" d="M155.39,104.74c-12.92,0-27.39-17.1-24.6-29.13A13.21,13.21,0,0,1,142.16,65.3c12.85-1.55,29,16.5,26.08,29.13A12.91,12.91,0,0,1,155.39,104.74Z"/><path class="cls-1" d="M64.58,149.22c3.16,5.84,6,10.85,8.57,16.05a4.63,4.63,0,0,1-.59,4.15c-2.56,2.77-5.53,5.15-8.86,8.13-3.19-5.82-6.24-11.23-9.06-16.75a3.31,3.31,0,0,1,.76-2.94C58.17,155,61.14,152.42,64.58,149.22Z"/></g></g></svg>