<svg xmlns="http://www.w3.org/2000/svg" viewBox="0 0 383 351"><defs><style>.cls-1{fill:#1a1a19;}.cls-2{fill:#b89b5b;}</style></defs><g id="Layer_2" data-name="Layer 2"><g id="Layer_1-2" data-name="Layer 1"><path class="cls-1" d="M383,0Q286.31,88.57,189.63,177.16,94.8,264.07,0,351V0ZM121.06,109.68c-.55,2.15-.94,3.59-1.28,5-3,12.56,6.93,23.12,19.7,21s26.16-14.74,29-27.36a16.45,16.45,0,0,0-16-20.43c-2.75,0-5.5.38-8.54.62.14-1,.18-1.84.36-2.61,3.28-13.9-6.81-24.07-20.62-20.32-11.44,3.11-19.28,10.57-23.84,21.62-5.28,12.77,5.41,25.34,17.71,22.73A28.31,28.31,0,0,1,121.06,109.68ZM55.88,124c2,3.79,3.54,7.36,5.72,10.45,2.91,4.15,3,7.34-1.59,10.23-3.82,2.43-4,5.34-.21,8.69L68,146.69l9.55,17.75c-7.9,8.84-7.9,8.84-4.82,13l8-7,8.66,15.54c5.08-2.07,5.22-5.06,2.65-9a62.31,62.31,0,0,1-4.7-8.79c-.48-1.1-.54-3.15.15-3.87,2.78-2.94,5.93-5.54,9.24-8.52,3.08,5.63,5.83,10.65,8.54,15.58,5-2.1,5.59-4.89,2.76-8.75-1.17-1.59-1.65-3.69-2.86-5.24-3.42-4.37-2.93-7.66,1.62-11.1,4.28-3.23,4-3.58.17-8.1l-8.24,7.32c-2.36-4.43-4-8.55-6.51-12-3.37-4.59-3-7.95,1.7-11.06,3.91-2.57,3.66-5.41,0-8.58l-8.34,6.89L76.8,105l-4.93,4.48c2.5,4.58,5,8.88,7.15,13.35.56,1.18.6,3.44-.15,4.27-2.65,2.9-5.74,5.4-9,8.37l-9.07-16Z"/><path class="cls-2" d="M121.06,109.68a28.31,28.31,0,0,0-3.52.24c-12.3,2.61-23-10-17.71-22.73,4.56-11,12.4-18.51,23.84-21.62,13.81-3.75,23.9,6.42,20.62,20.32-.18.77-.22,1.57-.36,2.61,3-.24,5.79-.65,8.54-.62a16.45,16.45,0,0,1,16,20.43c-2.87,12.62-16.2,25.19-29,27.36s-22.71-8.4-19.7-21C120.12,113.27,120.51,111.83,121.06,109.68Zm33-2.51a6.83,6.83,0,0,0-7.1-7.25c-6.92-.08-14.34,6.62-14.92,13.48a6.82,6.82,0,0,0,6.51,7.78C145.24,121.85,154,113.92,154.06,107.17ZM133,86.1a6.87,6.87,0,0,0-7.48-6.93c-5.73.22-12.48,7-12.41,12.43a7.06,7.06,0,0,0,7.44,7C127.3,98.38,133.16,92.48,133,86.1Z"/><path class="cls-2" d="M55.88,124l4.91-4.48,9.07,16c3.27-3,6.36-5.47,9-8.37.75-.83.71-3.09.15-4.27-2.15-4.47-4.65-8.77-7.15-13.35L76.8,105l8.81,15.69L94,113.81c3.63,3.17,3.88,6,0,8.58-4.72,3.11-5.07,6.47-1.7,11.06,2.53,3.44,4.15,7.56,6.51,12l8.24-7.32c3.84,4.52,4.11,4.87-.17,8.1-4.55,3.44-5,6.73-1.62,11.1,1.21,1.55,1.69,3.65,2.86,5.24,2.83,3.86,2.23,6.65-2.76,8.75-2.71-4.93-5.46-9.95-8.54-15.58-3.31,3-6.46,5.58-9.24,8.52-.69.72-.63,2.77-.15,3.87a62.31,62.31,0,0,0,4.7,8.79c2.57,4,2.43,6.94-2.65,9l-8.66-15.54-8,7c-3.08-4.12-3.08-4.12,4.82-13L68,146.69l-8.22,6.67c-3.8-3.35-3.61-6.26.21-8.69,4.55-2.89,4.5-6.08,1.59-10.23C59.42,131.35,57.91,127.78,55.88,124Zm27,36.1c3.46-3.19,6.47-5.75,9.2-8.6a3.78,3.78,0,0,0,.46-3.44c-2.68-5.29-5.62-10.45-8.78-16.22-3.36,3-6.43,5.5-9.14,8.33a4.13,4.13,0,0,0-.45,3.78C76.77,149.12,79.65,154.16,82.9,160.09Z"/><path class="cls-1" d="M154.06,107.17c-.05,6.75-8.82,14.68-15.51,14A6.82,6.82,0,0,1,132,113.4c.58-6.86,8-13.56,14.92-13.48A6.83,6.83,0,0,1,154.06,107.17Z"/><path class="cls-1" d="M133,86.1c.12,6.38-5.74,12.28-12.45,12.53a7.06,7.06,0,0,1-7.44-7c-.07-5.46,6.68-12.21,12.41-12.43A6.87,6.87,0,0,1,133,86.1Z"/><path class="cls-1" d="M82.9,160.09c-3.25-5.93-6.13-11-8.71-16.15a4.13,4.13,0,0,1,.45-3.78c2.71-2.83,5.78-5.32,9.14-8.33,3.16,5.77,6.1,10.93,8.78,16.22a3.78,3.78,0,0,1-.46,3.44C89.37,154.34,86.36,156.9,82.9,160.09Z"/></g></g></svg>