<svg xmlns="http://www.w3.org/2000/svg" viewBox="0 0 383 351"><defs><style>.cls-1{fill:#1a1a19;}.cls-2{fill:#b89b5b;}</style></defs><g id="Layer_2" data-name="Layer 2"><g id="Layer_1-2" data-name="Layer 1"><path class="cls-1" d="M383,0Q286.31,88.57,189.63,177.16,94.8,264.07,0,351V0ZM134.79,75.25c-.48-2.88-1.1-5.47-1.31-8.09-.32-4-2.26-4.79-6-4.14C112.83,65.6,101.26,79.42,102,94.3c.62,13.23,7.48,23.14,17.6,31.07,15.62,12.25,30.31,10.75,42.65-4.27,7.87-9.57,7.51-22.51-.87-31.37-8.15-8.62-19.75-9.8-29.58-1.68-4.81,4-7.87,10-11.57,15C110.86,91.18,116.46,79.25,134.79,75.25ZM104.64,172c5.38-3.73,5.38-3.73,1.75-10.54-5-9.29-5-9.29,2.28-16.84a9.58,9.58,0,0,0,.91-1.53c-.91-1.41-1.86-2.9-3-4.62L98.11,146c-2.35-4.24-4.19-8.35-6.73-12-3.23-4.58-2.75-8,1.89-11,4-2.65,3.35-5.45-.14-8.54l-8.24,7.09c-3-5.46-5.8-10.48-8.84-16l-5,4.63c2.55,4.69,5,8.87,7.06,13.22.58,1.21.72,3.48,0,4.3-2.61,2.92-5.68,5.43-9,8.51-3.16-5.62-6-10.63-8.82-15.68-4.56,2.16-5.75,4.89-2.7,9,1.37,1.86,2.06,4.23,3.48,6,3.23,4.13,2.06,7.18-1.88,9.8-4.21,2.8-3.74,5.58-.06,8.63l8.1-6.68c3.37,6.25,6.49,12.05,9.72,18-2.17,2-4,3.91-6,5.63-3.42,2.93-.71,4.71,1,7.12L80,171.16l9.1,16.31L94,182.62c-1.06-2-1.91-3.55-2.79-5.13-6.39-11.55-6.39-11.55,3.75-20.11.21-.17.6-.13,1.33-.28C99,162,101.82,167,104.64,172Z"/><path class="cls-2" d="M134.79,75.25c-18.33,4-23.93,15.93-14.6,27.77,3.7-4.92,6.76-11,11.57-15,9.83-8.12,21.43-6.94,29.58,1.68,8.38,8.86,8.74,21.8.87,31.37-12.34,15-27,16.52-42.65,4.27-10.12-7.93-17-17.84-17.6-31.07-.7-14.88,10.87-28.7,25.54-31.28,3.72-.65,5.66.15,6,4.14C133.69,69.78,134.31,72.37,134.79,75.25ZM153.19,108c.09-5.78-3.78-10-9.19-10.15-7.21-.13-13.93,6.34-13.88,13.37,0,4.65,4.84,8.5,10.83,8.67C147.15,120,153.09,114.25,153.19,108Z"/><path class="cls-2" d="M104.64,172c-2.82-5-5.62-10-8.37-14.92-.73.15-1.12.11-1.33.28-10.14,8.56-10.14,8.56-3.75,20.11.88,1.58,1.73,3.18,2.79,5.13l-4.84,4.85L80,171.16l-8.12,6.94c-1.71-2.41-4.42-4.19-1-7.12,2-1.72,3.87-3.6,6-5.63-3.23-6-6.35-11.78-9.72-18L59.14,154c-3.68-3.05-4.15-5.83.06-8.63,3.94-2.62,5.11-5.67,1.88-9.8-1.42-1.81-2.11-4.18-3.48-6-3.05-4.12-1.86-6.85,2.7-9,2.85,5,5.66,10.06,8.82,15.68,3.35-3.08,6.42-5.59,9-8.51.73-.82.59-3.09,0-4.3-2.08-4.35-4.51-8.53-7.06-13.22l5-4.63c3,5.51,5.82,10.53,8.84,16l8.24-7.09c3.49,3.09,4.17,5.89.14,8.54-4.64,3.07-5.12,6.47-1.89,11,2.54,3.61,4.38,7.72,6.73,12l8.52-7.5c1.09,1.72,2,3.21,3,4.62a9.58,9.58,0,0,1-.91,1.53c-7.24,7.55-7.24,7.55-2.28,16.84C110,168.29,110,168.29,104.64,172ZM83,132.46c-3.29,3-6.13,5.28-8.64,7.91-.84.87-1.58,2.89-1.14,3.78,2.69,5.47,5.74,10.77,8.9,16.57,3.26-3,6.22-5.37,8.76-8.15a4.74,4.74,0,0,0,.69-4.22C89.06,143.16,86.14,138.15,83,132.46Z"/><path class="cls-1" d="M153.19,108c-.1,6.29-6,12.07-12.24,11.89-6-.17-10.8-4-10.83-8.67-.05-7,6.67-13.5,13.88-13.37C149.41,97.91,153.28,102.18,153.19,108Z"/><path class="cls-1" d="M83,132.46c3.12,5.69,6,10.7,8.57,15.89a4.74,4.74,0,0,1-.69,4.22c-2.54,2.78-5.5,5.19-8.76,8.15-3.16-5.8-6.21-11.1-8.9-16.57-.44-.89.3-2.91,1.14-3.78C76.89,137.74,79.73,135.42,83,132.46Z"/></g></g></svg>