<svg xmlns="http://www.w3.org/2000/svg" viewBox="0 0 383 351"><defs><style>.cls-1{fill:#1a1a19;}.cls-2{fill:#b89b5b;}</style></defs><g id="Layer_2" data-name="Layer 2"><g id="Layer_1-2" data-name="Layer 1"><path class="cls-1" d="M383,0Q286.31,88.57,189.63,177.16,94.8,264.07,0,351V0ZM166,98.53,144.87,117.6c1.36-8.79,2.82-16.29,3.65-23.86,2.13-19.26-14.59-32.68-31.36-25.36C104.38,74,96.73,87.44,98.38,102.11h12.74a74.69,74.69,0,0,1,1.25-8.86c2-7.65,8.28-12.83,13.95-11.79s9.35,7.94,8.16,16.16c-1.39,9.54-2.3,19.24-4.74,28.52-2.11,8,1.35,12.52,7.31,16.92l38-34.86ZM70.45,172.21l2.83,4.68,8.25-7.12,8.65,15.45c5-2.16,5.34-4.95,2.74-8.81a67.64,67.64,0,0,1-5-9.17c-.46-1-.58-2.84,0-3.44,2.88-2.93,6.06-5.57,9.52-8.66l8.78,15.92,5-4.34-8.57-16.28,8.58-8L108.11,137l-8.61,7.87c-2.43-4.57-4.2-9-6.91-12.7-3.16-4.36-2.59-7.37,1.74-10.12s4.2-5.72.22-8.94l-8.11,7.07L77.69,104.8c-4.82,2.27-5.21,4.84-2.74,8.6s4.25,7.76,6.33,11.67l-10.71,9.77L61.71,119c-5.24,4-5.24,4-2.54,9a36.94,36.94,0,0,0,3.14,5.66c3.47,4.33,2.6,7.62-1.84,10.52-4,2.62-3.52,5.38.22,8.41l3.78-3.15c1.24-1,2.47-2.1,4.2-3.57,1.7,3.11,3.15,5.69,4.55,8.29,5,9.25,5,9.25-2.15,16.77A6.47,6.47,0,0,0,70.45,172.21Z"/><path class="cls-2" d="M166,98.53l9.14,9.67-38,34.86c-6-4.4-9.42-8.91-7.31-16.92,2.44-9.28,3.35-19,4.74-28.52,1.19-8.22-2.39-15.09-8.16-16.16s-12,4.14-13.95,11.79a74.69,74.69,0,0,0-1.25,8.86H98.38c-1.65-14.67,6-28.14,18.78-33.73,16.77-7.32,33.49,6.1,31.36,25.36-.83,7.57-2.29,15.07-3.65,23.86Z"/><path class="cls-2" d="M70.45,172.21a6.47,6.47,0,0,1,.62-1.24c7.1-7.52,7.11-7.52,2.15-16.77-1.4-2.6-2.85-5.18-4.55-8.29-1.73,1.47-3,2.53-4.2,3.57l-3.78,3.15c-3.74-3-4.23-5.79-.22-8.41,4.44-2.9,5.31-6.19,1.84-10.52A36.94,36.94,0,0,1,59.17,128c-2.7-5-2.7-5,2.54-9l8.86,15.8,10.71-9.77c-2.08-3.91-3.91-8-6.33-11.67s-2.08-6.33,2.74-8.6l8.75,15.36,8.11-7.07c4,3.22,4.17,6.16-.22,8.94s-4.9,5.76-1.74,10.12c2.71,3.73,4.48,8.13,6.91,12.7l8.61-7.87,3.17,5.45-8.58,8,8.57,16.28-5,4.34-8.78-15.92c-3.46,3.09-6.64,5.73-9.52,8.66-.59.6-.47,2.47,0,3.44a67.64,67.64,0,0,0,5,9.17c2.6,3.86,2.26,6.65-2.74,8.81l-8.65-15.45-8.25,7.12Zm14.11-41.06c-3.46,3.06-6.4,5.48-9.07,8.15-.74.74-1.32,2.57-.92,3.36,2.8,5.52,5.88,10.91,9.1,16.75,3.28-3,6.23-5.45,8.77-8.25A4.6,4.6,0,0,0,93,147C90.52,141.84,87.63,136.81,84.56,131.15Z"/><path class="cls-1" d="M84.56,131.15c3.07,5.66,6,10.69,8.48,15.88a4.6,4.6,0,0,1-.6,4.13c-2.54,2.8-5.49,5.22-8.77,8.25-3.22-5.84-6.3-11.23-9.1-16.75-.4-.79.18-2.62.92-3.36C78.16,136.63,81.1,134.21,84.56,131.15Z"/></g></g></svg>