<svg xmlns="http://www.w3.org/2000/svg" viewBox="0 0 383 351"><defs><style>.cls-1{fill:#1a1a19;}.cls-2{fill:#b79a5b;}</style></defs><g id="Layer_2" data-name="Layer 2"><g id="Layer_1-2" data-name="Layer 1"><path class="cls-1" d="M383,0Q286.31,88.57,189.63,177.16,94.8,264.07,0,351V0ZM121.34,101.83l8.54,9.4c2-1.68,3.49-3.16,5.18-4.43,2.64-2,5.16-4.47,8.15-5.49a8.33,8.33,0,0,1,7.1,1.43c1.55,1.45,2.66,5.17,1.86,6.93-1.57,3.45-4,7.23-7.18,9.07-4.69,2.74-10.29,3.92-16,5.94,0,2.15.19,5.14-.06,8.1-.26,3.21,1.21,3.86,4.08,4,14.2.53,31.81-13.06,34.61-27,2.45-12.16-7.25-25.25-21-20.92a20,20,0,0,1-3.6.43,18,18,0,0,1,.5-2.29c5-13.26-8.1-25.65-21.83-20.82-11.58,4.07-19.4,12-22.69,23.95-.88,3.24-.87,6.72-1.31,10.43l12.55.9c.26-1.87.41-3.5.71-5.09,1.18-6.17,4-11.3,9.77-14.29,3.47-1.8,7.1-2.3,10.08.93s2.07,6.94-.45,9.93S124.74,98.54,121.34,101.83ZM86.46,120.16,77.71,104.8c-4.75,2.22-5.3,4.74-2.79,8.55s4.26,7.77,6.37,11.71l-10.74,9.78-8.75-15.7c-4.62,2.32-5.78,5-2.71,8.89,1.32,1.67,1.86,3.95,3.18,5.63,3.38,4.27,2.78,7.61-1.76,10.53-4,2.56-3.67,5.34.19,8.43l7.84-6.54c1.42,2.37,2.64,4.3,3.75,6.3,1.92,3.49,5.39,7.12,5.18,10.5-.19,3.1-4.4,6-7.08,9.22l2.87,4.78,8.29-7.08,8.61,15.41c4.9-2.1,5.47-4.83,2.8-8.75a60.25,60.25,0,0,1-5-9.17c-.47-1-.39-3.06.31-3.79,2.72-2.85,5.8-5.35,9.13-8.32,3.07,5.47,5.86,10.47,8.87,15.84l5-4.29-9-17,9-7.4L108,137.11l-8.47,7.72c-2.4-4.51-4.19-8.9-6.88-12.64-3.1-4.32-2.71-7.36,1.68-10.13s4.28-5.71.25-9Z"/><path class="cls-2" d="M121.34,101.83c3.4-3.29,6.49-5.86,9-8.89s3.55-6.58.45-9.93-6.61-2.73-10.08-.93c-5.77,3-8.59,8.12-9.77,14.29-.3,1.59-.45,3.22-.71,5.09l-12.55-.9c.44-3.71.43-7.19,1.31-10.43,3.29-11.94,11.11-19.88,22.69-23.95,13.73-4.83,26.82,7.56,21.83,20.82a18,18,0,0,0-.5,2.29,20,20,0,0,0,3.6-.43c13.72-4.33,23.42,8.76,21,20.92-2.8,13.91-20.41,27.5-34.61,27-2.87-.11-4.34-.76-4.08-4,.25-3,.06-6,.06-8.1,5.7-2,11.3-3.2,16-5.94,3.15-1.84,5.61-5.62,7.18-9.07.8-1.76-.31-5.48-1.86-6.93a8.33,8.33,0,0,0-7.1-1.43c-3,1-5.51,3.51-8.15,5.49-1.69,1.27-3.23,2.75-5.18,4.43Z"/><path class="cls-2" d="M86.46,120.16l8.09-7.09c4,3.28,4.11,6.24-.25,9s-4.78,5.81-1.68,10.13c2.69,3.74,4.48,8.13,6.88,12.64l8.47-7.72,3.36,5.21-9,7.4,9,17-5,4.29c-3-5.37-5.8-10.37-8.87-15.84-3.33,3-6.41,5.47-9.13,8.32-.7.73-.78,2.74-.31,3.79a60.25,60.25,0,0,0,5,9.17c2.67,3.92,2.1,6.65-2.8,8.75L81.55,169.8l-8.29,7.08-2.87-4.78c2.68-3.27,6.89-6.12,7.08-9.22.21-3.38-3.26-7-5.18-10.5-1.11-2-2.33-3.93-3.75-6.3l-7.84,6.54c-3.86-3.09-4.17-5.87-.19-8.43,4.54-2.92,5.14-6.26,1.76-10.53-1.32-1.68-1.86-4-3.18-5.63-3.07-3.93-1.91-6.57,2.71-8.89l8.75,15.7,10.74-9.78c-2.11-3.94-3.94-8-6.37-11.71s-2-6.33,2.79-8.55Zm-2.81,39.26c3.28-3,6.28-5.6,9-8.43a3.75,3.75,0,0,0,.7-3.33c-2.72-5.42-5.69-10.72-8.81-16.48-3.43,3-6.49,5.54-9.27,8.33a3.72,3.72,0,0,0-.59,3.41C77.45,148.33,80.46,153.61,83.65,159.42Z"/><path class="cls-1" d="M83.65,159.42c-3.19-5.81-6.2-11.09-9-16.5a3.72,3.72,0,0,1,.59-3.41c2.78-2.79,5.84-5.3,9.27-8.33,3.12,5.76,6.09,11.06,8.81,16.48a3.75,3.75,0,0,1-.7,3.33C89.93,153.82,86.93,156.4,83.65,159.42Z"/></g></g></svg>