<svg xmlns="http://www.w3.org/2000/svg" viewBox="0 0 383 351"><defs><style>.cls-1{fill:#1a1a19;}.cls-2{fill:#b89b5b;}</style></defs><g id="Layer_2" data-name="Layer 2"><g id="Layer_1-2" data-name="Layer 1"><path class="cls-1" d="M383,0Q286.31,88.57,189.63,177.16,94.8,264.07,0,351V0ZM171.27,111.71l-9.73-10.94,7.35-5L160,86.06l-6.84,5.75c-9.56-10.37-18.76-20.35-28.26-30.64-3.5,3.17-6.39,6.16-9.65,8.65C112.42,72,111.56,74.47,112,78c1.62,13.72,3.54,27.44,4.27,41.21.41,7.52,4.53,11.17,10,14.72l24.48-22.33,9.57,10.06ZM104.64,172c6.76-2.93,3.8-6.73,1.73-10.55-5.1-9.42-5.06-9.44,2.34-16.82a8,8,0,0,0,.86-1.54l-2.95-4.53L98.07,146c-2.26-4.11-4-8.08-6.47-11.56-3.26-4.61-3.41-8.22,1.7-11.47,4.13-2.63,3.23-5.46-.21-8.48l-8.2,7.06-8.85-16-4.93,4.65c2.56,4.72,5,8.9,7.07,13.25.58,1.2.67,3.46-.07,4.29-2.6,2.92-5.66,5.42-9,8.5l-8.8-15.72c-5.52,3.88-5.52,3.88-2.65,9a49.28,49.28,0,0,0,3.2,5.63c3.06,4.11,2.8,7.43-1.7,10.25s-3.56,5.57,0,8.6c2.69-2.24,5.2-4.31,8.07-6.69,2.47,4.53,4.41,8.77,7,12.58,2.81,4.15,2.32,7.1-1.83,9.78-3.77,2.44-4,5.19-.23,8.24l7.86-6.8c3.09,5.55,5.94,10.66,9.07,16.26L94,182.69c-2.6-4.84-5.09-9.17-7.22-13.66-.56-1.17-.6-3.42.15-4.24,2.63-2.88,5.7-5.36,9-8.33C99,162,101.85,167,104.64,172Z"/><path class="cls-2" d="M171.27,111.71l-11,9.94-9.57-10.06-24.48,22.33c-5.49-3.55-9.61-7.2-10-14.72C115.52,105.43,113.6,91.71,112,78c-.42-3.52.44-6,3.31-8.17,3.26-2.49,6.15-5.48,9.65-8.65,9.5,10.29,18.7,20.27,28.26,30.64L160,86.06l8.85,9.72-7.35,5ZM128.19,115l14.1-12.92L125.81,84.24l-1,.53C125.87,94.47,127,104.18,128.19,115Z"/><path class="cls-2" d="M104.64,172c-2.79-5-5.6-9.95-8.74-15.51-3.27,3-6.34,5.45-9,8.33-.75.82-.71,3.07-.15,4.24,2.13,4.49,4.62,8.82,7.22,13.66l-4.93,4.71c-3.13-5.6-6-10.71-9.07-16.26l-7.86,6.8c-3.72-3.05-3.54-5.8.23-8.24,4.15-2.68,4.64-5.63,1.83-9.78-2.58-3.81-4.52-8-7-12.58-2.87,2.38-5.38,4.45-8.07,6.69-3.53-3-4.33-5.86,0-8.6s4.76-6.14,1.7-10.25a49.28,49.28,0,0,1-3.2-5.63c-2.87-5.16-2.87-5.16,2.65-9l8.8,15.72c3.33-3.08,6.39-5.58,9-8.5.74-.83.65-3.09.07-4.29-2.07-4.35-4.51-8.53-7.07-13.25L76,105.54l8.85,16,8.2-7.06c3.44,3,4.34,5.85.21,8.48-5.11,3.25-5,6.86-1.7,11.47,2.45,3.48,4.21,7.45,6.47,11.56l8.55-7.44,2.95,4.53a8,8,0,0,1-.86,1.54c-7.4,7.38-7.44,7.4-2.34,16.82C108.44,165.24,111.4,169,104.64,172ZM82.17,160.76c3.33-3,6.14-5.4,8.63-8,.82-.87,1.52-2.86,1.08-3.75-2.69-5.45-5.72-10.73-8.86-16.47-3.18,2.84-6,5.12-8.5,7.76-.9,1-1.62,3.17-1.13,4.18C76,149.78,79,154.93,82.17,160.76Z"/><path class="cls-1" d="M128.19,115c-1.23-10.85-2.32-20.56-3.42-30.26l1-.53,16.48,17.87Z"/><path class="cls-1" d="M82.17,160.76c-3.19-5.83-6.19-11-8.78-16.33-.49-1,.23-3.22,1.13-4.18,2.46-2.64,5.32-4.92,8.5-7.76,3.14,5.74,6.17,11,8.86,16.47.44.89-.26,2.88-1.08,3.75C88.31,155.36,85.5,157.71,82.17,160.76Z"/></g></g></svg>