<svg xmlns="http://www.w3.org/2000/svg" viewBox="0 0 383 351"><defs><style>.cls-1{fill:#1a1a19;}.cls-2{fill:#b89b5b;}</style></defs><g id="Layer_2" data-name="Layer 2"><g id="Layer_1-2" data-name="Layer 1"><path class="cls-1" d="M383,0Q286.31,88.57,189.63,177.16,94.8,264.07,0,351V0ZM131.73,124.9a86.36,86.36,0,0,0,1.79,10c.29,1,2.36,2.16,3.56,2.1,15.07-.7,29.19-17.54,27.36-32.58-2-16.29-11.59-27.25-25.37-34.91-8.93-5-18-4.29-26.41,1.47C103.8,77.1,98,85.12,98.72,96.47c.66,10,9,19.22,18.21,20.56,11.11,1.6,22.79-5.65,26.75-16.63.51-1.44,1-2.89,1.59-4.72C155.19,109.41,150.2,120,131.73,124.9ZM80,171.15l8.63,15.58c5.27-2.46,5-5.29,2.49-9.57-6.78-11.52-6.57-11.64,4-19.91a4.36,4.36,0,0,1,.93-.26l8.57,15c4.6-2.15,5.25-4.86,2.74-8.57-1.48-2.2-2.37-4.8-3.89-7-2.35-3.32-2.38-6,1.3-8.27,1.94-1.22,3.74-2.66,5.61-4l-1-1.21-2.83-4.39L98,146c-2.35-4.27-4.12-8.25-6.55-11.76-3.1-4.45-3.24-7.93,1.64-11.08,3.89-2.51,3.74-5.41,0-8.65l-8.25,7.05-8.84-16-5,4.57c2.49,4.59,4.94,8.75,7,13.1.61,1.31.67,3.73-.15,4.68-2.45,2.87-5.45,5.27-8.75,8.32l-9-15.87-5,4.39c2,3.73,3.65,7.41,5.89,10.65,2.82,4.07,2.54,7.18-1.68,9.86s-4,5.5-.24,8.75l8.16-6.63c2.46,4.52,4.3,8.67,6.83,12.33,3,4.32,2.5,7.41-1.91,10.17-3.74,2.35-3.61,5.06-.12,8.06Z"/><path class="cls-2" d="M131.73,124.9c18.47-4.87,23.46-15.49,13.54-29.22-.62,1.83-1.08,3.28-1.59,4.72-4,11-15.64,18.23-26.75,16.63-9.19-1.34-17.55-10.58-18.21-20.56C98,85.12,103.8,77.1,112.66,71c8.4-5.76,17.48-6.43,26.41-1.47,13.78,7.66,23.39,18.62,25.37,34.91,1.83,15-12.29,31.88-27.36,32.58-1.2.06-3.27-1.1-3.56-2.1A86.36,86.36,0,0,1,131.73,124.9ZM136,88.83c0-4.9-4.45-8.56-10.62-8.68-6.49-.13-12.38,5.79-12.34,12.4a9.56,9.56,0,0,0,9.77,9.68A13.46,13.46,0,0,0,136,88.83Z"/><path class="cls-2" d="M80,171.15l-8,6.78c-3.49-3-3.62-5.71.12-8.06,4.41-2.76,4.89-5.85,1.91-10.17-2.53-3.66-4.37-7.81-6.83-12.33L59.1,154c-3.78-3.25-3.9-6.11.24-8.75s4.5-5.79,1.68-9.86c-2.24-3.24-3.86-6.92-5.89-10.65l5-4.39,9,15.87c3.3-3.05,6.3-5.45,8.75-8.32.82-1,.76-3.37.15-4.68-2-4.35-4.48-8.51-7-13.1l5-4.57,8.84,16,8.25-7.05c3.73,3.24,3.88,6.14,0,8.65-4.88,3.15-4.74,6.63-1.64,11.08,2.43,3.51,4.2,7.49,6.55,11.76l8.63-7.39,2.83,4.39,1,1.21c-1.87,1.34-3.67,2.78-5.61,4-3.68,2.3-3.65,5-1.3,8.27,1.52,2.16,2.41,4.76,3.89,7,2.51,3.71,1.86,6.42-2.74,8.57l-8.57-15a4.36,4.36,0,0,0-.93.26c-10.62,8.27-10.83,8.39-4,19.91,2.52,4.28,2.78,7.11-2.49,9.57Zm2.1-10.41c3.33-3,6.27-5.49,8.87-8.26a4.25,4.25,0,0,0,.75-3.81c-2.64-5.31-5.6-10.46-8.73-16.18-3.2,2.87-6.18,5.24-8.73,8a4.76,4.76,0,0,0-.78,4.24C76.05,149.93,79,154.94,82.14,160.74Z"/><path class="cls-1" d="M136,88.83a13.46,13.46,0,0,1-13.19,13.4,9.56,9.56,0,0,1-9.77-9.68c0-6.61,5.85-12.53,12.34-12.4C131.59,80.27,136.05,83.93,136,88.83Z"/><path class="cls-1" d="M82.14,160.74c-3.17-5.8-6.09-10.81-8.62-16a4.76,4.76,0,0,1,.78-4.24c2.55-2.75,5.53-5.12,8.73-8,3.13,5.72,6.09,10.87,8.73,16.18a4.25,4.25,0,0,1-.75,3.81C88.41,155.25,85.47,157.7,82.14,160.74Z"/></g></g></svg>