<svg xmlns="http://www.w3.org/2000/svg" viewBox="0 0 383 351"><defs><style>.cls-1{fill:#1a1a19;}.cls-2{fill:#b89a5b;}</style></defs><g id="Layer_2" data-name="Layer 2"><g id="Layer_1-2" data-name="Layer 1"><path class="cls-1" d="M383,0Q286.31,88.57,189.63,177.16,94.8,264.07,0,351V0ZM125.16,78.92,142.53,138c3.78-3.45,6.72-6.37,9.92-9,2.21-1.78,2.26-3.51,1.48-6-5.41-17.63-10.39-35.4-16.15-52.91-1.55-4.72-5.33-8.7-8.36-13.46L91,91.87l9.23,9.78c4.45-4,8.4-7.56,12.33-11.13S120.5,83.2,125.16,78.92ZM97.44,155.05c1.7,3.12,3,5.61,4.4,8.06s2.91,5,4.39,7.58c5.27-3.7,5.27-3.7,1.86-10.18-5.22-9.91-5.22-9.91,2.3-17.59a4,4,0,0,0,.48-1.15l-2.74-4.69-8.63,7.67-9.85-18.26A45.76,45.76,0,0,1,94.49,122c4-2.79,4.06-5.57.13-8.9l-8.24,7.1-8.61-15.4c-5.49,3.6-5.46,3.59-2.68,8.71,2.11,3.87,4.13,7.79,6.17,11.64l-10.71,9.66-8.7-15.54c-4.8,2.13-5.67,4.81-2.69,9,2.2,3.09,5.37,6.8,5.1,10s-4.31,6-6.68,9a4.69,4.69,0,0,0-.33.92l3.08,4.85,8.4-7c1.73,3.17,3.16,5.77,4.56,8.38,5,9.29,5,9.29-2.32,16.76-.21.21-.24.6-.45,1.16.83,1.4,1.73,2.93,2.76,4.69,2.83-2.49,5.4-4.77,8.18-7.23l8.76,15.53c5.06-2.36,5-5.19,2.62-9-2.31-3.59-4.1-7.51-6.19-11.41Z"/><path class="cls-2" d="M125.16,78.92c-4.66,4.28-8.64,8-12.64,11.6s-7.88,7.11-12.33,11.13L91,91.87l38.46-35.25c3,4.76,6.81,8.74,8.36,13.46,5.76,17.51,10.74,35.28,16.15,52.91.78,2.54.73,4.27-1.48,6-3.2,2.59-6.14,5.51-9.92,9Z"/><path class="cls-2" d="M97.44,155.05l-10.79,9.82c2.09,3.9,3.88,7.82,6.19,11.41,2.43,3.78,2.44,6.61-2.62,9l-8.76-15.53c-2.78,2.46-5.35,4.74-8.18,7.23-1-1.76-1.93-3.29-2.76-4.69.21-.56.24-.95.45-1.16,7.3-7.47,7.3-7.47,2.32-16.76-1.4-2.61-2.83-5.21-4.56-8.38l-8.4,7-3.08-4.85a4.69,4.69,0,0,1,.33-.92c2.37-3,6.41-5.8,6.68-9s-2.9-6.88-5.1-10c-3-4.18-2.11-6.86,2.69-9l8.7,15.54,10.71-9.66c-2-3.85-4.06-7.77-6.17-11.64-2.78-5.12-2.81-5.11,2.68-8.71l8.61,15.4,8.24-7.1c3.93,3.33,3.91,6.11-.13,8.9a45.76,45.76,0,0,0-4.84,4.52l9.85,18.26,8.63-7.67,2.74,4.69a4,4,0,0,1-.48,1.15c-7.52,7.68-7.52,7.68-2.3,17.59,3.41,6.48,3.41,6.48-1.86,10.18-1.48-2.55-3-5.05-4.39-7.58S99.14,158.17,97.44,155.05ZM84.59,131.18c-3.34,2.94-6.42,5.42-9.17,8.23a4.14,4.14,0,0,0-.54,3.8c2.64,5.3,5.6,10.46,8.74,16.2,3.32-3,6.44-5.72,9.29-8.66a3.73,3.73,0,0,0,.31-3.39C90.56,142.05,87.66,136.87,84.59,131.18Z"/><path class="cls-1" d="M84.59,131.18c3.07,5.69,6,10.87,8.63,16.18a3.73,3.73,0,0,1-.31,3.39c-2.85,2.94-6,5.61-9.29,8.66-3.14-5.74-6.1-10.9-8.74-16.2a4.14,4.14,0,0,1,.54-3.8C78.17,136.6,81.25,134.12,84.59,131.18Z"/></g></g></svg>