<svg xmlns="http://www.w3.org/2000/svg" viewBox="0 0 383 351"><defs><style>.cls-1{fill:#1a1a19;}.cls-2{fill:#b79a5b;}</style></defs><g id="Layer_2" data-name="Layer 2"><g id="Layer_1-2" data-name="Layer 1"><path class="cls-1" d="M383,0Q286.31,88.57,189.63,177.16,94.8,264.07,0,351V0ZM92.92,90.05c7.12,8.28,13.91,16.22,20.73,24.14,4.48,5.2,12.09,3.69,14.64-2.82,2-5.06,4.79-9.5,10-11.83,5-2.23,9-1.47,12.07,2.34,2.74,3.4,3.2,9.09-.18,12.42a44.82,44.82,0,0,1-11.75,7.88c-2.66,1.3-6.05,1.13-9.1,1.61,0,3,.18,5.87,0,8.67-.34,4.22,1.77,5,5.43,4.65,12.5-1.34,21.83-7.79,28.41-18.09s4.68-22.18-4-29.9-19.72-7.87-29.37.36c-3.39,2.9-5.62,7.17-8.71,11.26l-8.73-10,23.37-21.6-9.1-9.91ZM72.74,177.36l8-6.9c3,5.35,5.91,10.46,8.76,15.52,4.75-2.28,5.16-5,2.68-8.92-2.31-3.61-4.15-7.53-6.31-11.54l10.84-9.77,8.56,15.5c5.51-3.26,5.52-3.26,2.88-8.35-1.08-2.06-1.91-4.32-3.31-6.13-3.27-4.22-2.53-7.48,1.8-10.22,3.83-2.43,4.06-5.21.56-8.56l-8.45,7.39c-2.32-4.34-4.1-8.47-6.59-12.12-3-4.3-3.25-7.65,1.55-10.67,4.1-2.59,4-5.53.18-8.81l-8.24,7c-3-5.42-5.84-10.42-8.86-15.8l-4.91,4.59c2.5,4.56,4.94,8.72,7,13,.59,1.23.86,3.55.15,4.32-2.76,3-6,5.58-9.25,8.53L61,119.82c-5.36,3.85-5.35,3.84-2.7,8.75a41,41,0,0,0,3.13,5.68c3.32,4.23,3.06,7.61-1.63,10.6-4,2.56-3.46,5.43,0,8.5L68,146.72c2.45,4.5,4.35,8.76,7,12.55,2.84,4.15,2.35,7.09-1.82,9.74C69.52,171.29,69.1,174,72.74,177.36Z"/><path class="cls-2" d="M92.92,90.05,126.6,59.23l9.1,9.91-23.37,21.6,8.73,10c3.09-4.09,5.32-8.36,8.71-11.26,9.65-8.23,20.64-8.1,29.37-.36s10.58,19.65,4,29.9-15.91,16.75-28.41,18.09c-3.66.39-5.77-.43-5.43-4.65.22-2.8,0-5.63,0-8.67,3-.48,6.44-.31,9.1-1.61a44.82,44.82,0,0,0,11.75-7.88c3.38-3.33,2.92-9,.18-12.42-3.07-3.81-7-4.57-12.07-2.34-5.25,2.33-8.05,6.77-10,11.83-2.55,6.51-10.16,8-14.64,2.82C106.83,106.27,100,98.33,92.92,90.05Z"/><path class="cls-2" d="M72.74,177.36c-3.64-3.34-3.22-6.07.37-8.35,4.17-2.65,4.66-5.59,1.82-9.74-2.6-3.79-4.5-8.05-7-12.55l-8.15,6.63c-3.48-3.07-4-5.94,0-8.5,4.69-3,5-6.37,1.63-10.6a41,41,0,0,1-3.13-5.68c-2.65-4.91-2.66-4.9,2.7-8.75l8.8,15.63c3.28-2.95,6.49-5.53,9.25-8.53.71-.77.44-3.09-.15-4.32-2.1-4.33-4.54-8.49-7-13L76.78,105c3,5.38,5.81,10.38,8.86,15.8l8.24-7c3.79,3.28,3.92,6.22-.18,8.81-4.8,3-4.5,6.37-1.55,10.67,2.49,3.65,4.27,7.78,6.59,12.12l8.45-7.39c3.5,3.35,3.27,6.13-.56,8.56-4.33,2.74-5.07,6-1.8,10.22,1.4,1.81,2.23,4.07,3.31,6.13,2.64,5.09,2.63,5.09-2.88,8.35l-8.56-15.5-10.84,9.77c2.16,4,4,7.93,6.31,11.54,2.48,3.87,2.07,6.64-2.68,8.92-2.85-5.06-5.74-10.17-8.76-15.52Zm11-45.56c-3.38,3-6.27,5.5-9,8.14-.7.68-1.45,2.23-1.13,2.86,2.86,5.7,6,11.29,9.21,17.31,3.38-3.1,6.23-5.41,8.66-8.1a4.73,4.73,0,0,0,.88-4.16C89.89,142.66,87,137.65,83.78,131.8Z"/><path class="cls-1" d="M83.78,131.8c3.2,5.85,6.11,10.86,8.63,16a4.73,4.73,0,0,1-.88,4.16c-2.43,2.69-5.28,5-8.66,8.1-3.25-6-6.35-11.61-9.21-17.31-.32-.63.43-2.18,1.13-2.86C77.51,137.3,80.4,134.83,83.78,131.8Z"/></g></g></svg>