<?xml version="1.0" encoding="utf-8"?><svg preserveAspectRatio="xMidYMid meet" id="trentonducati.com" xmlns="http://www.w3.org/2000/svg" width="1118.195" height="120.19" viewBox="0 0 1118.195 120.19"><defs><style>.cls-1{fill:#d10000;}.cls-2{fill:#fffdfd;}</style></defs><path class="cls-1" d="M600.221,99.361v-80.4h42.258a41.2,41.2,0,0,1,29.611,11.89q12.346,11.891,12.351,28.312A37.824,37.824,0,0,1,672.09,87.612a41.444,41.444,0,0,1-29.611,11.749Zm21.128-20.1h21.13a21.118,21.118,0,0,0,14.88-5.8,19.317,19.317,0,0,0,0-28.452,20.846,20.846,0,0,0-14.88-5.945h-21.13Z"/><path class="cls-1" d="M772.231,59.161A37.824,37.824,0,0,1,759.88,87.612a43.563,43.563,0,0,1-59.519,0,37.808,37.808,0,0,1-12.35-28.451v-40.2H709.14v40.2a18.942,18.942,0,0,0,6.1,14.3,22.166,22.166,0,0,0,29.908,0,18.734,18.734,0,0,0,6.25-14.3v-40.2h20.832Z"/><path class="cls-1" d="M818.06,99.361a41.793,41.793,0,0,1-29.909-11.749A37.811,37.811,0,0,1,775.8,59.161q0-16.416,12.349-28.312a41.539,41.539,0,0,1,29.909-11.89h41.962v20.1H818.06a20.7,20.7,0,0,0-15.029,5.945,19.638,19.638,0,0,0,0,28.452,20.967,20.967,0,0,0,15.029,5.8h41.962v20.1Z"/><path class="cls-1" d="M884.721,79.261v20.1H863.592v-40.2q0-16.416,12.35-28.312a43.188,43.188,0,0,1,59.52,0q12.345,11.891,12.35,28.312v40.2H926.98v-20.1Zm42.259-20.1a21.105,21.105,0,0,0-21.129-20.1,20.7,20.7,0,0,0-15.029,5.945,19.084,19.084,0,0,0-6.1,14.156Z"/><path class="cls-1" d="M1004.058,39.06v60.3h-21.13V39.06H951.383v-20.1h84.22v20.1Z"/><path class="cls-1" d="M1039.173,18.959h21.13v80.4h-21.13Z"/><path d="M75.048,39.06v60.3H53.919V39.06H22.374v-20.1h84.22v20.1Z"/><path d="M176.528,67.937q4.464,4.53,8.631,8.493t6.249,5.662a9.376,9.376,0,0,1,2.977,7.078,9.833,9.833,0,0,1-2.977,7.218,10.1,10.1,0,0,1-7.44,2.973,10.488,10.488,0,0,1-7.44-3.114q-3.87-3.4-12.5-11.749T148.257,69.352H131.294V99.361H110.165v-80.4H168.2a26.108,26.108,0,0,1,18.6,7.5q7.881,7.5,7.886,17.694a22.791,22.791,0,0,1-5.208,14.862A27.551,27.551,0,0,1,176.528,67.937ZM168.2,39.06h-36.9v9.908h36.9a5.5,5.5,0,0,0,3.422-1.274,4.236,4.236,0,0,0,1.637-3.538,4.787,4.787,0,0,0-1.637-3.539A4.96,4.96,0,0,0,168.2,39.06Z"/><path d="M282.472,59.161h-.3v9.908H221.763a20.457,20.457,0,0,0,7.589,7.361,21.34,21.34,0,0,0,10.862,2.831h42.258v20.1H240.214a41.793,41.793,0,0,1-29.909-11.749,37.808,37.808,0,0,1-12.35-28.451q0-16.416,12.35-28.312a43.375,43.375,0,0,1,59.669,0Q282.472,42.74,282.472,59.161ZM221.763,48.968h36.6a21.37,21.37,0,0,0-7.588-7.077,20.835,20.835,0,0,0-10.565-2.831,22.022,22.022,0,0,0-18.451,9.908Z"/><path d="M328,39.06H306.875v60.3H285.746v-80.4H328a41.2,41.2,0,0,1,29.611,11.89q12.346,11.891,12.351,28.312v40.2H349.134v-40.2a18.876,18.876,0,0,0-6.25-14.156A20.846,20.846,0,0,0,328,39.06Z"/><path d="M420.711,39.06v60.3H399.582V39.06H368.037v-20.1h84.22v20.1Z"/><path d="M491.486,18.959a41.191,41.191,0,0,1,29.61,11.89q12.346,11.891,12.351,28.312A37.824,37.824,0,0,1,521.1,87.612a43.563,43.563,0,0,1-59.519,0,37.808,37.808,0,0,1-12.35-28.451q0-16.416,12.35-28.312A41.539,41.539,0,0,1,491.486,18.959Zm0,20.1a20.7,20.7,0,0,0-15.029,5.945,19.636,19.636,0,0,0,0,28.452,22.166,22.166,0,0,0,29.908,0,19.313,19.313,0,0,0,0-28.452A20.844,20.844,0,0,0,491.486,39.06Z"/><path d="M579.276,39.06H558.147v60.3H537.018v-80.4h42.258a41.193,41.193,0,0,1,29.611,11.89q12.347,11.891,12.351,28.312v40.2H600.406v-40.2a18.88,18.88,0,0,0-6.25-14.156A20.845,20.845,0,0,0,579.276,39.06Z"/><path class="cls-1" d="M600.221,99.361v-80.4h42.258a41.2,41.2,0,0,1,29.611,11.89q12.346,11.891,12.351,28.312A37.824,37.824,0,0,1,672.09,87.612a41.444,41.444,0,0,1-29.611,11.749Zm21.128-20.1h21.13a21.118,21.118,0,0,0,14.88-5.8,19.317,19.317,0,0,0,0-28.452,20.846,20.846,0,0,0-14.88-5.945h-21.13Z"/><path d="M642.479,102.36H597.221v-86.4h45.258A44.273,44.273,0,0,1,674.17,28.688c8.806,8.481,13.271,18.733,13.271,30.473a40.884,40.884,0,0,1-13.283,30.625A44.535,44.535,0,0,1,642.479,102.36Zm-39.258-6h39.258a38.22,38.22,0,0,0,27.544-10.922c7.682-7.309,11.418-15.9,11.418-26.277,0-10.188-3.739-18.742-11.432-26.151a37.964,37.964,0,0,0-27.53-11.051H603.221Zm39.258-14.1H618.35V36.06h24.129a23.842,23.842,0,0,1,16.947,6.772,22.315,22.315,0,0,1-.026,32.824A24.121,24.121,0,0,1,642.479,82.261Zm-18.129-6h18.129a18.059,18.059,0,0,0,12.838-5,16.318,16.318,0,0,0-.026-24.081,17.8,17.8,0,0,0-12.812-5.118H624.35Z"/><path class="cls-1" d="M772.231,59.161A37.824,37.824,0,0,1,759.88,87.612a43.563,43.563,0,0,1-59.519,0,37.808,37.808,0,0,1-12.35-28.451v-40.2H709.14v40.2a18.942,18.942,0,0,0,6.1,14.3,22.166,22.166,0,0,0,29.908,0,18.734,18.734,0,0,0,6.25-14.3v-40.2h20.832Z"/><path d="M730.27,102.36a44.887,44.887,0,0,1-31.978-12.575,40.87,40.87,0,0,1-13.281-30.624v-43.2H712.14v43.2a15.919,15.919,0,0,0,5.167,12.121,19.169,19.169,0,0,0,25.8-.023,15.721,15.721,0,0,0,5.291-12.1v-43.2h26.832v43.2a40.884,40.884,0,0,1-13.283,30.625A44.533,44.533,0,0,1,730.27,102.36Zm-39.259-80.4v37.2c0,10.377,3.734,18.972,11.417,26.277,7.722,7.35,16.828,10.922,27.842,10.922a38.219,38.219,0,0,0,27.543-10.922c7.682-7.309,11.418-15.9,11.418-26.277v-37.2H754.4v37.2a21.707,21.707,0,0,1-7.208,16.5,25.168,25.168,0,0,1-34.019-.026,21.916,21.916,0,0,1-7.032-16.469v-37.2Z"/><path class="cls-1" d="M818.06,99.361a41.793,41.793,0,0,1-29.909-11.749A37.811,37.811,0,0,1,775.8,59.161q0-16.416,12.349-28.312a41.539,41.539,0,0,1,29.909-11.89h41.962v20.1H818.06a20.7,20.7,0,0,0-15.029,5.945,19.638,19.638,0,0,0,0,28.452,20.967,20.967,0,0,0,15.029,5.8h41.962v20.1Z"/><path d="M863.022,102.36H818.06a44.886,44.886,0,0,1-31.977-12.575A40.87,40.87,0,0,1,772.8,59.161c0-11.745,4.465-22,13.27-30.473A44.616,44.616,0,0,1,818.06,15.959h44.962v26.1H818.06a17.65,17.65,0,0,0-12.935,5.093,16.639,16.639,0,0,0-.028,24.129,17.917,17.917,0,0,0,12.963,4.979h44.962Zm-44.962-80.4c-11,0-20.107,3.615-27.827,11.051C782.541,40.415,778.8,48.969,778.8,59.161c0,10.377,3.734,18.972,11.417,26.277,7.722,7.35,16.828,10.922,27.841,10.922h38.962v-14.1H818.06a23.963,23.963,0,0,1-17.1-6.631,22.639,22.639,0,0,1-.025-32.774,23.69,23.69,0,0,1,17.123-6.8h38.962v-14.1Z"/><path class="cls-1" d="M884.721,79.261v20.1H863.592v-40.2q0-16.416,12.35-28.312a43.188,43.188,0,0,1,59.52,0q12.345,11.891,12.35,28.312v40.2H926.98v-20.1Zm42.259-20.1a21.105,21.105,0,0,0-21.129-20.1,20.7,20.7,0,0,0-15.029,5.945,19.084,19.084,0,0,0-6.1,14.156Z"/><path d="M950.812,102.36H923.98v-20.1H887.721v20.1H860.592v-43.2c0-11.745,4.464-22,13.269-30.473a46.186,46.186,0,0,1,63.68,0c8.806,8.481,13.271,18.733,13.271,30.473Zm-20.832-6h14.832v-37.2c0-10.188-3.739-18.742-11.432-26.151a37.963,37.963,0,0,0-27.529-11.051c-11,0-20.107,3.615-27.828,11.051-7.692,7.405-11.431,15.959-11.431,26.151v37.2h15.129v-20.1H929.98Zm.111-34.2h-48.37v-3a22.067,22.067,0,0,1,7.007-16.3,23.69,23.69,0,0,1,17.123-6.8,24.105,24.105,0,0,1,24.127,22.992Zm-42.119-6H923.61a18.246,18.246,0,0,0-17.759-14.1,17.65,17.65,0,0,0-12.935,5.093A16.233,16.233,0,0,0,887.972,56.161Z"/><path class="cls-1" d="M1004.058,39.06v60.3h-21.13V39.06H951.383v-20.1h84.22v20.1Z"/><path d="M1007.058,102.36h-27.13V42.06H948.383v-26.1h90.22v26.1h-31.545Zm-21.13-6h15.13V36.06H1032.6v-14.1h-78.22v14.1h31.545Z"/><path class="cls-1" d="M1039.173,18.959h21.13v80.4h-21.13Z"/><path d="M1063.3,102.36h-27.13v-86.4h27.13Zm-21.13-6h15.13v-74.4h-15.13Z"/><path d="M75.048,39.06v60.3H53.919V39.06H22.374v-20.1h84.22v20.1Z"/><path d="M78.049,102.36H50.919V42.06H19.374v-26.1h90.22v26.1H78.049Zm-21.13-6h15.13V36.06h31.545v-14.1H25.374v14.1H56.919Z"/><path d="M176.528,67.937q4.464,4.53,8.631,8.493t6.249,5.662a9.376,9.376,0,0,1,2.977,7.078,9.833,9.833,0,0,1-2.977,7.218,10.1,10.1,0,0,1-7.44,2.973,10.488,10.488,0,0,1-7.44-3.114q-3.87-3.4-12.5-11.749T148.257,69.352H131.294V99.361H110.165v-80.4H168.2a26.108,26.108,0,0,1,18.6,7.5q7.881,7.5,7.886,17.694a22.791,22.791,0,0,1-5.208,14.862A27.551,27.551,0,0,1,176.528,67.937ZM168.2,39.06h-36.9v9.908h36.9a5.5,5.5,0,0,0,3.422-1.274,4.236,4.236,0,0,0,1.637-3.538,4.787,4.787,0,0,0-1.637-3.539A4.96,4.96,0,0,0,168.2,39.06Z"/><path d="M183.968,102.36a13.43,13.43,0,0,1-9.463-3.9c-2.62-2.3-6.846-6.275-12.562-11.81-5.793-5.6-10.676-10.29-14.886-14.3H134.294V102.36h-27.13v-86.4H168.2a29.134,29.134,0,0,1,20.667,8.328c5.852,5.573,8.819,12.257,8.819,19.869A25.82,25.82,0,0,1,191.8,60.917a30.711,30.711,0,0,1-9.987,8.072c1.871,1.859,3.684,3.621,5.415,5.265,2.685,2.559,4.728,4.412,6.078,5.513l.175.154a12.314,12.314,0,0,1,3.907,9.249,12.779,12.779,0,0,1-3.855,9.339A13.052,13.052,0,0,1,183.968,102.36ZM128.294,66.352h21.162l.869.826c4.416,4.2,9.581,9.162,15.79,15.163,5.68,5.5,9.849,9.42,12.392,11.651l.092.084a7.532,7.532,0,0,0,5.369,2.284,7.159,7.159,0,0,0,5.321-2.094,6.888,6.888,0,0,0,2.1-5.1,6.35,6.35,0,0,0-1.972-4.834c-1.466-1.2-3.593-3.132-6.324-5.734s-5.658-5.474-8.7-8.56L171,66.6l4.59-1.513a24.4,24.4,0,0,0,11.562-7.968,19.7,19.7,0,0,0,4.53-12.963c0-5.989-2.275-11.066-6.955-15.522A23.016,23.016,0,0,0,168.2,21.959H113.164v74.4h15.13Zm39.9-14.384h-39.9V36.06h39.9a8.485,8.485,0,0,1,8.059,8.1,7.213,7.213,0,0,1-2.792,5.9A8.463,8.463,0,0,1,168.2,51.968Zm-33.9-6h33.9a2.475,2.475,0,0,0,1.581-.643,1.252,1.252,0,0,0,.478-1.169,1.81,1.81,0,0,0-.709-1.37,2.158,2.158,0,0,0-1.35-.726h-33.9Z"/><path d="M282.472,59.161h-.3v9.908H221.763a20.457,20.457,0,0,0,7.589,7.361,21.34,21.34,0,0,0,10.862,2.831h42.258v20.1H240.214a41.793,41.793,0,0,1-29.909-11.749,37.808,37.808,0,0,1-12.35-28.451q0-16.416,12.35-28.312a43.375,43.375,0,0,1,59.669,0Q282.472,42.74,282.472,59.161ZM221.763,48.968h36.6a21.37,21.37,0,0,0-7.588-7.077,20.835,20.835,0,0,0-10.565-2.831,22.022,22.022,0,0,0-18.451,9.908Z"/><path d="M285.473,102.36H240.214a44.886,44.886,0,0,1-31.977-12.575,40.868,40.868,0,0,1-13.282-30.624c0-11.745,4.464-22,13.269-30.473a46.374,46.374,0,0,1,63.817-.012c8.912,8.478,13.432,18.735,13.432,30.485v3h-.3v9.907H228.264a19.86,19.86,0,0,0,2.584,1.762,18.238,18.238,0,0,0,9.366,2.431h45.259Zm-45.259-80.4c-11,0-20.107,3.615-27.828,11.051-7.692,7.405-11.431,15.959-11.431,26.151,0,10.377,3.735,18.972,11.417,26.277C220.1,92.788,229.2,96.36,240.214,96.36h39.259v-14.1H240.214a24.408,24.408,0,0,1-12.362-3.233A23.49,23.49,0,0,1,219.18,70.6l-2.674-4.527h62.669V56.161h.184c-.681-8.879-4.447-16.473-11.453-23.138A38.468,38.468,0,0,0,240.214,21.959Zm23.592,30.009H216.324l2.9-4.6A25.016,25.016,0,0,1,240.214,36.06a23.886,23.886,0,0,1,12.061,3.23,24.433,24.433,0,0,1,8.63,8.078Zm-35.2-6h22.918a22.006,22.006,0,0,0-2.245-1.479,17.953,17.953,0,0,0-9.065-2.429,18.272,18.272,0,0,0-9.366,2.431A22.058,22.058,0,0,0,228.606,45.968Z"/><path d="M328,39.06H306.875v60.3H285.746v-80.4H328a41.2,41.2,0,0,1,29.611,11.89q12.346,11.891,12.351,28.312v40.2H349.134v-40.2a18.876,18.876,0,0,0-6.25-14.156A20.846,20.846,0,0,0,328,39.06Z"/><path d="M372.966,102.36H346.134v-43.2a15.858,15.858,0,0,0-5.318-11.982A17.8,17.8,0,0,0,328,42.06H309.875v60.3h-27.13v-86.4H328A44.275,44.275,0,0,1,359.7,28.688c8.8,8.481,13.27,18.733,13.27,30.473Zm-20.832-6h14.832v-37.2c0-10.188-3.74-18.742-11.432-26.151A37.965,37.965,0,0,0,328,21.959H288.745v74.4h15.13V36.06H328a23.85,23.85,0,0,1,16.948,6.771,21.854,21.854,0,0,1,7.182,16.33Z"/><path d="M420.711,39.06v60.3H399.582V39.06H368.037v-20.1h84.22v20.1Z"/><path d="M423.711,102.36H396.582V42.06H365.036v-26.1h90.221v26.1H423.711Zm-21.129-6h15.129V36.06h31.546v-14.1H371.036v14.1h31.546Z"/><path d="M491.486,18.959a41.191,41.191,0,0,1,29.61,11.89q12.346,11.891,12.351,28.312A37.824,37.824,0,0,1,521.1,87.612a43.563,43.563,0,0,1-59.519,0,37.808,37.808,0,0,1-12.35-28.451q0-16.416,12.35-28.312A41.539,41.539,0,0,1,491.486,18.959Zm0,20.1a20.7,20.7,0,0,0-15.029,5.945,19.636,19.636,0,0,0,0,28.452,22.166,22.166,0,0,0,29.908,0,19.313,19.313,0,0,0,0-28.452A20.844,20.844,0,0,0,491.486,39.06Z"/><path d="M491.486,102.36a44.884,44.884,0,0,1-31.977-12.575,40.868,40.868,0,0,1-13.282-30.624c0-11.745,4.465-22,13.27-30.473a46.186,46.186,0,0,1,63.68,0c8.806,8.481,13.27,18.733,13.27,30.473a40.884,40.884,0,0,1-13.283,30.625A44.53,44.53,0,0,1,491.486,102.36Zm0-80.4c-11,0-20.107,3.615-27.827,11.051-7.693,7.405-11.432,15.959-11.432,26.151,0,10.376,3.735,18.972,11.418,26.277,7.722,7.35,16.828,10.922,27.841,10.922a38.214,38.214,0,0,0,27.543-10.922c7.683-7.309,11.418-15.9,11.418-26.277,0-10.188-3.739-18.742-11.432-26.151A37.961,37.961,0,0,0,491.486,21.959Zm0,60.3a23.965,23.965,0,0,1-17.1-6.631,22.636,22.636,0,0,1-.024-32.774,24.778,24.778,0,0,1,34.069-.024,22.312,22.312,0,0,1-.027,32.824A24.117,24.117,0,0,1,491.486,82.261Zm0-40.2a17.652,17.652,0,0,0-12.935,5.093,16.637,16.637,0,0,0-.028,24.129,19.169,19.169,0,0,0,25.8-.023,16.316,16.316,0,0,0-.026-24.081A17.8,17.8,0,0,0,491.486,42.06Z"/><path d="M579.276,39.06H558.147v60.3H537.018v-80.4h42.258a41.193,41.193,0,0,1,29.611,11.89q12.347,11.891,12.351,28.312v40.2H600.406v-40.2a18.88,18.88,0,0,0-6.25-14.156A20.845,20.845,0,0,0,579.276,39.06Z"/><path d="M624.238,102.36H597.407v-43.2a15.867,15.867,0,0,0-5.319-11.983,17.8,17.8,0,0,0-12.811-5.118h-18.13v60.3h-27.13v-86.4h45.26a44.273,44.273,0,0,1,31.691,12.729c8.805,8.481,13.27,18.733,13.27,30.473Zm-20.831-6h14.831v-37.2c0-10.188-3.74-18.742-11.432-26.151a37.963,37.963,0,0,0-27.529-11.051h-39.26v74.4h15.13V36.06h24.13a23.842,23.842,0,0,1,16.946,6.772,21.852,21.852,0,0,1,7.184,16.329Z"/><path class="cls-1" d="M1076.6,22.713a3.134,3.134,0,0,1-.948,2.3,3.031,3.031,0,0,1-2.211.948,3.235,3.235,0,0,1-3.249-3.25,2.988,2.988,0,0,1,.947-2.256,3.214,3.214,0,0,1,2.3-.9,3.1,3.1,0,0,1,2.211.9A2.985,2.985,0,0,1,1076.6,22.713Z"/><path class="cls-1" d="M1070.19,38.237a12.816,12.816,0,0,1,25.631,0v9h-6.407v-9a6.118,6.118,0,0,0-1.9-4.558,6.385,6.385,0,0,0-10.92,4.558v9.747h-6.408Z"/><path class="cls-1" d="M1095.821,61.882a12.181,12.181,0,0,1-3.79,8.979,12.8,12.8,0,0,1-18.1,0,12.746,12.746,0,0,1,0-18.049,12.838,12.838,0,0,1,21.886,9.07Zm-6.407,0a6.118,6.118,0,0,0-1.9-4.558,6.414,6.414,0,0,0-9.07,9.07,6.431,6.431,0,0,0,10.966-4.512Z"/><path class="cls-1" d="M1070.19,91.664V85.257h19.224V82.008H1070.19V75.69h25.631V88.415a12.865,12.865,0,0,1-12.815,12.816H1070.19V94.823h12.816a6.3,6.3,0,0,0,3.2-.857,6.042,6.042,0,0,0,2.3-2.3Z"/><path class="cls-1" d="M600.221,99.361v-80.4h42.258a41.2,41.2,0,0,1,29.611,11.89q12.346,11.891,12.351,28.312A37.824,37.824,0,0,1,672.09,87.612a41.444,41.444,0,0,1-29.611,11.749Zm21.128-20.1h21.13a21.118,21.118,0,0,0,14.88-5.8,19.317,19.317,0,0,0,0-28.452,20.846,20.846,0,0,0-14.88-5.945h-21.13Z"/><path class="cls-2" d="M642.479,101.36H598.221v-84.4h44.258a43.3,43.3,0,0,1,31,12.45c8.6,8.284,12.964,18.3,12.964,29.752a39.916,39.916,0,0,1-12.972,29.9A43.563,43.563,0,0,1,642.479,101.36Zm-40.258-4h40.258a39.683,39.683,0,0,0,28.232-11.2,36.056,36.056,0,0,0,11.73-27c0-10.329-3.949-19.37-11.739-26.871a39.427,39.427,0,0,0-28.223-11.331H602.221Zm40.258-16.1H619.35V37.06h23.129a22.877,22.877,0,0,1,16.259,6.5,21.317,21.317,0,0,1-.019,31.367A23.147,23.147,0,0,1,642.479,81.261Zm-19.129-4h19.129A19.017,19.017,0,0,0,656,71.992a17.317,17.317,0,0,0-.017-25.538,18.753,18.753,0,0,0-13.5-5.394H623.35Z"/><path class="cls-1" d="M772.231,59.161A37.824,37.824,0,0,1,759.88,87.612a43.563,43.563,0,0,1-59.519,0,37.808,37.808,0,0,1-12.35-28.451v-40.2H709.14v40.2a18.942,18.942,0,0,0,6.1,14.3,22.166,22.166,0,0,0,29.908,0,18.734,18.734,0,0,0,6.25-14.3v-40.2h20.832Z"/><path class="cls-2" d="M730.27,101.36a43.914,43.914,0,0,1-31.288-12.3,39.9,39.9,0,0,1-12.971-29.9v-42.2H711.14v42.2a16.872,16.872,0,0,0,5.479,12.846,20.167,20.167,0,0,0,27.169-.015A16.672,16.672,0,0,0,749.4,59.161v-42.2h24.832v42.2a39.916,39.916,0,0,1-12.972,29.9A43.563,43.563,0,0,1,730.27,101.36Zm-40.259-80.4v38.2a36.043,36.043,0,0,0,11.728,27,41.566,41.566,0,0,0,56.762,0,36.052,36.052,0,0,0,11.73-27v-38.2H753.4v38.2a20.742,20.742,0,0,1-6.889,15.762,24.165,24.165,0,0,1-32.648-.018,20.948,20.948,0,0,1-6.722-15.744v-38.2Z"/><path class="cls-1" d="M818.06,99.361a41.793,41.793,0,0,1-29.909-11.749A37.811,37.811,0,0,1,775.8,59.161q0-16.416,12.349-28.312a41.539,41.539,0,0,1,29.909-11.89h41.962v20.1H818.06a20.7,20.7,0,0,0-15.029,5.945,19.638,19.638,0,0,0,0,28.452,20.967,20.967,0,0,0,15.029,5.8h41.962v20.1Z"/><path class="cls-2" d="M862.022,101.36H818.06a43.911,43.911,0,0,1-31.287-12.3,39.9,39.9,0,0,1-12.971-29.9c0-11.462,4.361-21.472,12.963-29.752a43.647,43.647,0,0,1,31.295-12.45h43.962v24.1H818.06a18.6,18.6,0,0,0-13.633,5.377,17.02,17.02,0,0,0-5.5,12.724,16.879,16.879,0,0,0,5.478,12.847,18.868,18.868,0,0,0,13.651,5.253h43.962Zm-43.962-80.4A39.773,39.773,0,0,0,789.539,32.29c-7.788,7.5-11.737,16.538-11.737,26.871a36.043,36.043,0,0,0,11.728,27,40.039,40.039,0,0,0,28.53,11.2h39.962v-16.1H818.06a22.989,22.989,0,0,1-16.408-6.356,21.638,21.638,0,0,1-.017-31.333A22.721,22.721,0,0,1,818.06,37.06h39.962v-16.1Z"/><path class="cls-1" d="M884.721,79.261v20.1H863.592v-40.2q0-16.416,12.35-28.312a43.188,43.188,0,0,1,59.52,0q12.345,11.891,12.35,28.312v40.2H926.98v-20.1Zm42.259-20.1a21.105,21.105,0,0,0-21.129-20.1,20.7,20.7,0,0,0-15.029,5.945,19.084,19.084,0,0,0-6.1,14.156Z"/><path class="cls-2" d="M949.812,101.36H924.98v-20.1H886.721v20.1H861.592v-42.2c0-11.462,4.361-21.472,12.963-29.752a45.184,45.184,0,0,1,62.293,0c8.6,8.284,12.964,18.3,12.964,29.752Zm-20.832-4h16.832v-38.2c0-10.329-3.949-19.37-11.738-26.871a41.187,41.187,0,0,0-56.745,0c-7.788,7.5-11.737,16.538-11.737,26.871v38.2h17.129v-20.1H928.98Zm.074-36.2H882.721v-2a21.1,21.1,0,0,1,6.705-15.589,22.721,22.721,0,0,1,16.425-6.512,23.106,23.106,0,0,1,23.128,22.028Zm-42.23-4H924.8a19.182,19.182,0,0,0-18.949-16.1,18.6,18.6,0,0,0-13.633,5.377A17.041,17.041,0,0,0,886.824,57.161Z"/><path class="cls-1" d="M1004.058,39.06v60.3h-21.13V39.06H951.383v-20.1h84.22v20.1Z"/><path class="cls-2" d="M1006.058,101.36h-25.13V41.06H949.383v-24.1h88.22v24.1h-31.545Zm-21.13-4h17.13V37.06H1033.6v-16.1h-80.22v16.1h31.545Z"/><path class="cls-1" d="M1039.173,18.959h21.13v80.4h-21.13Z"/><path class="cls-2" d="M1062.3,101.36h-25.13v-84.4h25.13Zm-21.13-4h17.13v-76.4h-17.13Z"/><path d="M75.048,39.06v60.3H53.919V39.06H22.374v-20.1h84.22v20.1Z"/><path class="cls-2" d="M77.049,101.36H51.919V41.06H20.374v-24.1h88.22v24.1H77.049Zm-21.13-4h17.13V37.06h31.545v-16.1H24.374v16.1H55.919Z"/><path d="M176.528,67.937q4.464,4.53,8.631,8.493t6.249,5.662a9.376,9.376,0,0,1,2.977,7.078,9.833,9.833,0,0,1-2.977,7.218,10.1,10.1,0,0,1-7.44,2.973,10.488,10.488,0,0,1-7.44-3.114q-3.87-3.4-12.5-11.749T148.257,69.352H131.294V99.361H110.165v-80.4H168.2a26.108,26.108,0,0,1,18.6,7.5q7.881,7.5,7.886,17.694a22.791,22.791,0,0,1-5.208,14.862A27.551,27.551,0,0,1,176.528,67.937ZM168.2,39.06h-36.9v9.908h36.9a5.5,5.5,0,0,0,3.422-1.274,4.236,4.236,0,0,0,1.637-3.538,4.787,4.787,0,0,0-1.637-3.539A4.96,4.96,0,0,0,168.2,39.06Z"/><path class="cls-2" d="M183.968,101.36a12.468,12.468,0,0,1-8.819-3.666c-2.544-2.228-6.773-6.2-12.51-11.759-5.93-5.731-10.9-10.51-15.182-14.583H133.294V101.36h-25.13v-84.4H168.2a28.161,28.161,0,0,1,19.978,8.053c5.646,5.376,8.508,11.816,8.508,19.144a24.845,24.845,0,0,1-5.659,16.128A29.676,29.676,0,0,1,180.1,68.7c2.233,2.235,4.391,4.341,6.436,6.283,2.7,2.576,4.766,4.447,6.135,5.562l.117.1a11.349,11.349,0,0,1,3.6,8.526,11.817,11.817,0,0,1-3.562,8.633A12.088,12.088,0,0,1,183.968,101.36ZM129.294,67.352h19.763l.579.55c4.414,4.2,9.576,9.159,15.784,15.158,5.691,5.511,9.872,9.442,12.428,11.684a8.561,8.561,0,0,0,6.12,2.616A8.11,8.11,0,0,0,190,94.973a7.84,7.84,0,0,0,2.39-5.8,7.386,7.386,0,0,0-2.3-5.58c-1.448-1.186-3.567-3.108-6.3-5.712-2.723-2.587-5.643-5.46-8.675-8.538l-2.261-2.3,3.06-1.008a25.706,25.706,0,0,0,12.023-8.285,20.666,20.666,0,0,0,4.756-13.6c0-6.277-2.376-11.591-7.265-16.246A23.971,23.971,0,0,0,168.2,20.959H112.164v76.4h17.13Zm38.9-16.384h-38.9V37.06h38.9a6.905,6.905,0,0,1,4.8,2.1,6.736,6.736,0,0,1,2.261,4.991,6.241,6.241,0,0,1-2.407,5.115A7.481,7.481,0,0,1,168.2,50.968Zm-34.9-4h34.9a3.543,3.543,0,0,0,2.195-.853,2.231,2.231,0,0,0,.864-1.959,2.755,2.755,0,0,0-1.018-2.093,3.038,3.038,0,0,0-2.041-1h-34.9Z"/><path d="M282.472,59.161h-.3v9.908H221.763a20.457,20.457,0,0,0,7.589,7.361,21.34,21.34,0,0,0,10.862,2.831h42.258v20.1H240.214a41.793,41.793,0,0,1-29.909-11.749,37.808,37.808,0,0,1-12.35-28.451q0-16.416,12.35-28.312a43.375,43.375,0,0,1,59.669,0Q282.472,42.74,282.472,59.161ZM221.763,48.968h36.6a21.37,21.37,0,0,0-7.588-7.077,20.835,20.835,0,0,0-10.565-2.831,22.022,22.022,0,0,0-18.451,9.908Z"/><path class="cls-2" d="M284.473,101.36H240.214a43.917,43.917,0,0,1-31.288-12.3,39.9,39.9,0,0,1-12.971-29.9c0-11.462,4.361-21.473,12.963-29.752a45.373,45.373,0,0,1,62.434-.009c8.706,8.282,13.121,18.3,13.121,29.761v2h-.3v9.907H225.74a19.636,19.636,0,0,0,14.474,6.193h44.259Zm-44.259-80.4A39.777,39.777,0,0,0,211.692,32.29c-7.788,7.5-11.737,16.538-11.737,26.871a36.043,36.043,0,0,0,11.728,27,40.043,40.043,0,0,0,28.531,11.2h40.259v-16.1H240.214a23.419,23.419,0,0,1-11.862-3.1,22.535,22.535,0,0,1-8.312-8.076l-1.782-3.018h61.917V57.161h.247c-.486-9.5-4.458-17.853-11.827-24.862A39.928,39.928,0,0,0,240.214,20.959Zm21.779,30.009H218.137l1.934-3.067A24.016,24.016,0,0,1,240.214,37.06a22.9,22.9,0,0,1,11.562,3.1,23.45,23.45,0,0,1,8.282,7.744Zm-36.071-4h28.285a21.4,21.4,0,0,0-4.428-3.345,18.942,18.942,0,0,0-9.565-2.563,19.508,19.508,0,0,0-9.865,2.564A21.443,21.443,0,0,0,225.922,46.968Z"/><path d="M328,39.06H306.875v60.3H285.746v-80.4H328a41.2,41.2,0,0,1,29.611,11.89q12.346,11.891,12.351,28.312v40.2H349.134v-40.2a18.876,18.876,0,0,0-6.25-14.156A20.846,20.846,0,0,0,328,39.06Z"/><path class="cls-2" d="M371.966,101.36H347.134v-42.2a16.812,16.812,0,0,0-5.628-12.707A18.755,18.755,0,0,0,328,41.06H308.875v60.3h-25.13v-84.4H328a43.3,43.3,0,0,1,31,12.45c8.6,8.284,12.964,18.3,12.964,29.752Zm-20.832-4h16.832v-38.2c0-10.329-3.95-19.37-11.738-26.871A39.43,39.43,0,0,0,328,20.959H287.745v76.4h17.13V37.06H328a22.877,22.877,0,0,1,16.259,6.5,20.888,20.888,0,0,1,6.871,15.605Z"/><path d="M420.711,39.06v60.3H399.582V39.06H368.037v-20.1h84.22v20.1Z"/><path class="cls-2" d="M422.711,101.36H397.582V41.06H366.036v-24.1h88.221v24.1H422.711Zm-21.129-4h17.129V37.06h31.546v-16.1H370.036v16.1h31.546Z"/><path d="M491.486,18.959a41.191,41.191,0,0,1,29.61,11.89q12.346,11.891,12.351,28.312A37.824,37.824,0,0,1,521.1,87.612a43.563,43.563,0,0,1-59.519,0,37.808,37.808,0,0,1-12.35-28.451q0-16.416,12.35-28.312A41.539,41.539,0,0,1,491.486,18.959Zm0,20.1a20.7,20.7,0,0,0-15.029,5.945,19.636,19.636,0,0,0,0,28.452,22.166,22.166,0,0,0,29.908,0,19.313,19.313,0,0,0,0-28.452A20.844,20.844,0,0,0,491.486,39.06Z"/><path class="cls-2" d="M491.486,101.36a43.911,43.911,0,0,1-31.287-12.3,39.9,39.9,0,0,1-12.972-29.9c0-11.462,4.362-21.472,12.963-29.752a45.186,45.186,0,0,1,62.294,0c8.6,8.284,12.963,18.3,12.963,29.752a39.916,39.916,0,0,1-12.972,29.9A43.558,43.558,0,0,1,491.486,101.36Zm0-80.4A39.773,39.773,0,0,0,462.965,32.29c-7.789,7.5-11.738,16.538-11.738,26.871a36.045,36.045,0,0,0,11.728,27,41.568,41.568,0,0,0,56.763,0,36.055,36.055,0,0,0,11.729-27c0-10.329-3.949-19.37-11.738-26.871A39.426,39.426,0,0,0,491.486,20.959Zm0,60.3a23,23,0,0,1-16.409-6.356,21.637,21.637,0,0,1-.016-31.333,23.781,23.781,0,0,1,32.683-.016,21.314,21.314,0,0,1-.018,31.367A23.147,23.147,0,0,1,491.486,81.261Zm0-40.2a18.6,18.6,0,0,0-13.633,5.377,17.016,17.016,0,0,0-5.5,12.724,16.872,16.872,0,0,0,5.479,12.846A20.167,20.167,0,0,0,505,71.992a17.315,17.315,0,0,0-.017-25.538A18.751,18.751,0,0,0,491.486,41.06Z"/><path d="M579.276,39.06H558.147v60.3H537.018v-80.4h42.258a41.193,41.193,0,0,1,29.611,11.89q12.347,11.891,12.351,28.312v40.2H600.406v-40.2a18.88,18.88,0,0,0-6.25-14.156A20.845,20.845,0,0,0,579.276,39.06Z"/><path class="cls-2" d="M623.238,101.36H598.407v-42.2a16.815,16.815,0,0,0-5.63-12.707,18.752,18.752,0,0,0-13.5-5.394h-19.13v60.3h-25.13v-84.4h44.26a43.3,43.3,0,0,1,31,12.45c8.6,8.284,12.964,18.3,12.964,29.752Zm-20.831-4h16.831v-38.2c0-10.329-3.95-19.37-11.739-26.871a39.422,39.422,0,0,0-28.222-11.331h-40.26v76.4h17.13V37.06h23.13a22.875,22.875,0,0,1,16.258,6.5,20.892,20.892,0,0,1,6.872,15.605Z"/></svg>